<mxfile host="app.diagrams.net" modified="2023-07-11T10:17:18.122Z" agent="Mozilla/5.0 (X11; Linux x86_64) AppleWebKit/537.36 (KHTML, like Gecko) Chrome/113.0.0.0 Safari/537.36" etag="tMGEuX24Bq-M7tetdm9P" version="21.5.2" type="device">
  <diagram name="Solution Diagram" id="KjHruUuFicPjJjsPckbl">
    <mxGraphModel dx="2358" dy="790" grid="1" gridSize="10" guides="1" tooltips="1" connect="1" arrows="1" fold="1" page="1" pageScale="1" pageWidth="827" pageHeight="1169" math="0" shadow="0">
      <root>
        <mxCell id="f6X1YWBZDQnpe002tcbw-0" />
        <mxCell id="f6X1YWBZDQnpe002tcbw-1" parent="f6X1YWBZDQnpe002tcbw-0" />
        <mxCell id="f6X1YWBZDQnpe002tcbw-3" value="" style="rounded=0;whiteSpace=wrap;html=1;sketch=1;curveFitting=1;jiggle=2;" parent="f6X1YWBZDQnpe002tcbw-1" vertex="1">
          <mxGeometry x="40" y="110" width="1120" height="480" as="geometry" />
        </mxCell>
        <mxCell id="dtAKmjQFMWXt57mnTUZf-1" value="Pub" style="edgeStyle=orthogonalEdgeStyle;rounded=0;orthogonalLoop=1;jettySize=auto;html=1;" parent="f6X1YWBZDQnpe002tcbw-1" source="f6X1YWBZDQnpe002tcbw-6" target="dtAKmjQFMWXt57mnTUZf-0" edge="1">
          <mxGeometry relative="1" as="geometry" />
        </mxCell>
        <mxCell id="f6X1YWBZDQnpe002tcbw-6" value="SCHEDULE" style="rounded=0;whiteSpace=wrap;html=1;sketch=1;curveFitting=1;jiggle=2;fillColor=#e1d5e7;strokeColor=#9673a6;fontStyle=1" parent="f6X1YWBZDQnpe002tcbw-1" vertex="1">
          <mxGeometry x="74" y="152.5" width="120" height="60" as="geometry" />
        </mxCell>
        <mxCell id="dtAKmjQFMWXt57mnTUZf-2" value="Sub" style="edgeStyle=orthogonalEdgeStyle;rounded=0;orthogonalLoop=1;jettySize=auto;html=1;exitX=0;exitY=0.5;exitDx=0;exitDy=0;" parent="f6X1YWBZDQnpe002tcbw-1" source="f6X1YWBZDQnpe002tcbw-7" target="dtAKmjQFMWXt57mnTUZf-0" edge="1">
          <mxGeometry relative="1" as="geometry" />
        </mxCell>
        <mxCell id="f6X1YWBZDQnpe002tcbw-7" value="" style="rounded=0;whiteSpace=wrap;html=1;sketch=1;curveFitting=1;jiggle=2;fillColor=#e1d5e7;strokeColor=#9673a6;" parent="f6X1YWBZDQnpe002tcbw-1" vertex="1">
          <mxGeometry x="640" y="152.5" width="120" height="60" as="geometry" />
        </mxCell>
        <mxCell id="f6X1YWBZDQnpe002tcbw-8" value="" style="rounded=0;whiteSpace=wrap;html=1;sketch=1;curveFitting=1;jiggle=2;fillColor=#e1d5e7;strokeColor=#9673a6;" parent="f6X1YWBZDQnpe002tcbw-1" vertex="1">
          <mxGeometry x="650" y="162.5" width="120" height="60" as="geometry" />
        </mxCell>
        <mxCell id="jl0i_Gg1Vf_ELbqKLtZG-1" value="Pub" style="edgeStyle=orthogonalEdgeStyle;rounded=0;orthogonalLoop=1;jettySize=auto;html=1;" parent="f6X1YWBZDQnpe002tcbw-1" source="f6X1YWBZDQnpe002tcbw-19" target="jl0i_Gg1Vf_ELbqKLtZG-0" edge="1">
          <mxGeometry relative="1" as="geometry" />
        </mxCell>
        <mxCell id="jl0i_Gg1Vf_ELbqKLtZG-3" style="edgeStyle=orthogonalEdgeStyle;rounded=0;orthogonalLoop=1;jettySize=auto;html=1;exitX=1;exitY=0.5;exitDx=0;exitDy=0;" parent="f6X1YWBZDQnpe002tcbw-1" source="f6X1YWBZDQnpe002tcbw-19" target="f6X1YWBZDQnpe002tcbw-24" edge="1">
          <mxGeometry relative="1" as="geometry" />
        </mxCell>
        <mxCell id="jl0i_Gg1Vf_ELbqKLtZG-4" value="HTTP" style="edgeLabel;html=1;align=center;verticalAlign=middle;resizable=0;points=[];" parent="jl0i_Gg1Vf_ELbqKLtZG-3" vertex="1" connectable="0">
          <mxGeometry x="-0.3238" y="-1" relative="1" as="geometry">
            <mxPoint x="32" y="-1" as="offset" />
          </mxGeometry>
        </mxCell>
        <mxCell id="f6X1YWBZDQnpe002tcbw-19" value="CONSUMER" style="rounded=0;whiteSpace=wrap;html=1;sketch=1;curveFitting=1;jiggle=2;fillColor=#e1d5e7;strokeColor=#9673a6;fontStyle=1" parent="f6X1YWBZDQnpe002tcbw-1" vertex="1">
          <mxGeometry x="660" y="172.5" width="120" height="60" as="geometry" />
        </mxCell>
        <mxCell id="jl0i_Gg1Vf_ELbqKLtZG-2" value="Sub" style="edgeStyle=orthogonalEdgeStyle;rounded=0;orthogonalLoop=1;jettySize=auto;html=1;entryX=1;entryY=0.5;entryDx=0;entryDy=0;entryPerimeter=0;" parent="f6X1YWBZDQnpe002tcbw-1" source="f6X1YWBZDQnpe002tcbw-23" target="jl0i_Gg1Vf_ELbqKLtZG-0" edge="1">
          <mxGeometry relative="1" as="geometry" />
        </mxCell>
        <mxCell id="f6X1YWBZDQnpe002tcbw-23" value="" style="rounded=0;whiteSpace=wrap;html=1;sketch=1;curveFitting=1;jiggle=2;fillColor=#e1d5e7;strokeColor=#9673a6;fontStyle=1" parent="f6X1YWBZDQnpe002tcbw-1" vertex="1">
          <mxGeometry x="660" y="470" width="120" height="60" as="geometry" />
        </mxCell>
        <mxCell id="f6X1YWBZDQnpe002tcbw-24" value="DESTINATION INSTITUTION" style="ellipse;shape=cloud;whiteSpace=wrap;html=1;sketch=1;curveFitting=1;jiggle=2;fillColor=#dae8fc;strokeColor=#6c8ebf;fontStyle=1" parent="f6X1YWBZDQnpe002tcbw-1" vertex="1">
          <mxGeometry x="980" y="162.5" width="120" height="80" as="geometry" />
        </mxCell>
        <mxCell id="f6X1YWBZDQnpe002tcbw-25" value="&lt;b&gt;&lt;font style=&quot;font-size: 34px;&quot;&gt;Consumer Architecture&lt;/font&gt;&lt;/b&gt;" style="text;html=1;strokeColor=none;fillColor=none;align=center;verticalAlign=middle;whiteSpace=wrap;rounded=0;" parent="f6X1YWBZDQnpe002tcbw-1" vertex="1">
          <mxGeometry x="270" y="40" width="715.5" height="30" as="geometry" />
        </mxCell>
        <mxCell id="f6X1YWBZDQnpe002tcbw-35" value="LOCAL DOCKER-COMPOSE" style="text;html=1;strokeColor=none;fillColor=none;align=center;verticalAlign=middle;whiteSpace=wrap;rounded=0;fontStyle=1" parent="f6X1YWBZDQnpe002tcbw-1" vertex="1">
          <mxGeometry x="980" y="560" width="180" height="30" as="geometry" />
        </mxCell>
        <mxCell id="f6X1YWBZDQnpe002tcbw-37" value="" style="rounded=0;whiteSpace=wrap;html=1;sketch=1;curveFitting=1;jiggle=2;fillColor=#e1d5e7;strokeColor=#9673a6;fontStyle=1" parent="f6X1YWBZDQnpe002tcbw-1" vertex="1">
          <mxGeometry x="670" y="480" width="120" height="60" as="geometry" />
        </mxCell>
        <mxCell id="f6X1YWBZDQnpe002tcbw-38" value="PROCESSOR" style="rounded=0;whiteSpace=wrap;html=1;sketch=1;curveFitting=1;jiggle=2;fillColor=#e1d5e7;strokeColor=#9673a6;fontStyle=1" parent="f6X1YWBZDQnpe002tcbw-1" vertex="1">
          <mxGeometry x="680" y="490" width="120" height="60" as="geometry" />
        </mxCell>
        <mxCell id="dtAKmjQFMWXt57mnTUZf-0" value="JMS OR KAFKA&lt;br style=&quot;border-color: var(--border-color);&quot;&gt;REQUEST-QUEUE" style="shape=cylinder3;whiteSpace=wrap;html=1;boundedLbl=1;backgroundOutline=1;size=15;fillColor=#e1d5e7;strokeColor=#9673a6;sketch=1;curveFitting=1;jiggle=2;fontStyle=1;rotation=90;horizontal=0;" parent="f6X1YWBZDQnpe002tcbw-1" vertex="1">
          <mxGeometry x="380" y="110" width="60" height="145" as="geometry" />
        </mxCell>
        <mxCell id="jl0i_Gg1Vf_ELbqKLtZG-0" value="JMS OR KAFKA&lt;br&gt;PROCESSOR-QUEUE" style="shape=cylinder3;whiteSpace=wrap;html=1;boundedLbl=1;backgroundOutline=1;size=15;fillColor=#e1d5e7;strokeColor=#9673a6;sketch=1;curveFitting=1;jiggle=2;fontStyle=1;rotation=90;horizontal=0;" parent="f6X1YWBZDQnpe002tcbw-1" vertex="1">
          <mxGeometry x="690" y="280" width="60" height="135" as="geometry" />
        </mxCell>
        <mxCell id="ejn1a3zXEXmZ6d7FOz37-0" value="&lt;div style=&quot;&quot;&gt;&lt;b style=&quot;background-color: initial;&quot;&gt;Serializer / Deserializer&lt;/b&gt;&lt;br&gt;&lt;/div&gt;&lt;br&gt;JSON&lt;br&gt;Protobuff&lt;br&gt;Protostuff&lt;br&gt;Kryo&lt;br&gt;Msgpack" style="text;html=1;strokeColor=none;fillColor=none;align=left;verticalAlign=middle;whiteSpace=wrap;rounded=0;" vertex="1" parent="f6X1YWBZDQnpe002tcbw-1">
          <mxGeometry x="74" y="430" width="80" height="140" as="geometry" />
        </mxCell>
        <mxCell id="ejn1a3zXEXmZ6d7FOz37-3" value="&lt;div style=&quot;text-align: left;&quot;&gt;&lt;b style=&quot;background-color: initial;&quot;&gt;Communication protocol&amp;nbsp;&lt;/b&gt;&lt;/div&gt;&lt;div style=&quot;text-align: left;&quot;&gt;&lt;span style=&quot;font-size: 12px;&quot;&gt;&lt;br&gt;&lt;/span&gt;&lt;/div&gt;&lt;div style=&quot;text-align: left;&quot;&gt;&lt;span style=&quot;background-color: initial;&quot;&gt;HTTP&lt;/span&gt;&lt;/div&gt;&lt;div style=&quot;text-align: left;&quot;&gt;&lt;span style=&quot;background-color: initial;&quot;&gt;QUIC&lt;/span&gt;&lt;/div&gt;&lt;div style=&quot;text-align: left;&quot;&gt;&lt;span style=&quot;background-color: initial;&quot;&gt;gRPC&lt;/span&gt;&lt;/div&gt;&lt;div style=&quot;text-align: left;&quot;&gt;&lt;span style=&quot;background-color: initial;&quot;&gt;WebSocket&lt;/span&gt;&lt;/div&gt;&lt;div style=&quot;text-align: left;&quot;&gt;&lt;span style=&quot;background-color: initial;&quot;&gt;Apache Thrift&lt;/span&gt;&lt;/div&gt;" style="text;html=1;strokeColor=none;fillColor=none;align=center;verticalAlign=middle;whiteSpace=wrap;rounded=0;" vertex="1" parent="f6X1YWBZDQnpe002tcbw-1">
          <mxGeometry x="194" y="430" width="100" height="140" as="geometry" />
        </mxCell>
      </root>
    </mxGraphModel>
  </diagram>
</mxfile>
